<svg height="512" viewBox="0 0 128 128" width="512" xmlns="http://www.w3.org/2000/svg"><path d="M23.963 45.877h80.072a6.75 6.75 0 0 0 0-13.5H23.963a6.75 6.75 0 0 0 0 13.5zm0-10h80.072a3.25 3.25 0 0 1 0 6.5H23.963a3.25 3.25 0 0 1 0-6.5zM104.035 57.25H23.963a6.75 6.75 0 1 0 0 13.5h80.072a6.75 6.75 0 0 0 0-13.5zm0 10H23.963a3.25 3.25 0 1 1 0-6.5h80.072a3.25 3.25 0 0 1 0 6.5zM89.035 82.123H23.963a6.75 6.75 0 0 0 0 13.5h65.072a6.75 6.75 0 0 0 0-13.5zm0 10H23.963a3.25 3.25 0 0 1 0-6.5h65.072a3.25 3.25 0 0 1 0 6.5z" fill="currentColor" /></svg>