<svg viewBox="0 0 128 128"  xmlns="http://www.w3.org/2000/svg"><path d="M65.188 27.873A36.127 36.127 0 10101.315 64a36.168 36.168 0 00-36.127-36.127zm0 68.754A32.627 32.627 0 1197.815 64a32.665 32.665 0 01-32.627 32.627z"/><path d="M65.188 41.093A22.907 22.907 0 1088.1 64a22.934 22.934 0 00-22.912-22.907zm0 42.314A19.407 19.407 0 1184.6 64a19.429 19.429 0 01-19.412 19.407zM22.519 22.416a1.749 1.749 0 00-1.75 1.75v18.355h-4.606V24.166a1.75 1.75 0 00-3.5 0v18.355H8.057V24.166a1.75 1.75 0 00-3.5 0v22.689a7.971 7.971 0 005.019 7.4L8.991 100.1a5.422 5.422 0 1010.843 0l-.585-45.843a7.972 7.972 0 005.02-7.4V24.166a1.75 1.75 0 00-1.75-1.75zm-1.75 24.439a4.461 4.461 0 01-3.616 4.377 1.752 1.752 0 00-1.421 1.742l.6 47.165a1.907 1.907 0 01-.554 1.374 1.969 1.969 0 01-2.734 0 1.906 1.906 0 01-.555-1.374l.6-47.165a1.752 1.752 0 00-1.421-1.742 4.46 4.46 0 01-3.615-4.377v-.834h12.716zM122.612 22.678a1.754 1.754 0 00-2.111.206 41.852 41.852 0 00-13.344 30.586v16.979a1.749 1.749 0 001.75 1.75h3.133v27.684a5.7 5.7 0 0011.4 0V24.166a1.751 1.751 0 00-.828-1.488zM110.657 53.47a38.366 38.366 0 019.286-24.97v40.2h-9.286zm7.084 48.614a2.2 2.2 0 01-2.2-2.2V72.2h4.4v27.683a2.2 2.2 0 01-2.2 2.201z"/></svg>