<svg xmlns="http://www.w3.org/2000/svg" viewBox="0 0 128 128">
  <path d="M60.737 102.754a4.5 4.5 0 0 0 6.526 0l20.093-21.142A12.221 12.221 0 0 0 78.5 60.971h-.93A18.771 18.771 0 0 0 64 66.706a19.066 19.066 0 0 0-13.566-5.735h-.7a12.568 12.568 0 0 0-8.894 3.6 12.174 12.174 0 0 0-.2 17.043Zm-17.412-35.72a9.045 9.045 0 0 1 6.41-2.563h.7a15.523 15.523 0 0 1 12.186 5.972 1.812 1.812 0 0 0 2.766 0 15.317 15.317 0 0 1 12.185-5.972h.93A8.721 8.721 0 0 1 84.819 79.2l-20.093 21.144a1 1 0 0 1-1.452 0L43.18 79.2a8.692 8.692 0 0 1 .145-12.166Z"/>
  <path d="M122.25 18.439h-8v-7.125a4.756 4.756 0 0 0-4.75-4.75h-2a4.756 4.756 0 0 0-4.75 4.75v7.125H92v-7.125a4.756 4.756 0 0 0-4.75-4.75h-2a4.756 4.756 0 0 0-4.75 4.75v7.125H69.75v-7.125A4.756 4.756 0 0 0 65 6.564h-2a4.756 4.756 0 0 0-4.75 4.75v7.125H47.5v-7.125a4.756 4.756 0 0 0-4.75-4.75h-2a4.755 4.755 0 0 0-4.75 4.75v7.125H25.245v-7.125a4.756 4.756 0 0 0-4.75-4.75h-2a4.756 4.756 0 0 0-4.75 4.75v7.125H5.75A5.757 5.757 0 0 0 0 24.189v91.5a5.757 5.757 0 0 0 5.75 5.75h116.5a5.757 5.757 0 0 0 5.75-5.75v-91.5a5.757 5.757 0 0 0-5.75-5.75Zm-16-7.125a1.25 1.25 0 0 1 1.25-1.25h2a1.251 1.251 0 0 1 1.25 1.25v17.75a1.252 1.252 0 0 1-1.25 1.25h-2a1.251 1.251 0 0 1-1.25-1.25v-17.75Zm-22.25 0a1.25 1.25 0 0 1 1.25-1.25h2a1.251 1.251 0 0 1 1.25 1.25v17.75a1.252 1.252 0 0 1-1.25 1.25h-2a1.251 1.251 0 0 1-1.25-1.25v-17.75Zm-22.252 0A1.25 1.25 0 0 1 63 10.064h2a1.251 1.251 0 0 1 1.25 1.25v17.75a1.252 1.252 0 0 1-1.25 1.25h-2a1.251 1.251 0 0 1-1.25-1.25v-17.75Zm-22.252 0a1.25 1.25 0 0 1 1.25-1.25h2A1.251 1.251 0 0 1 44 11.314v17.75a1.252 1.252 0 0 1-1.25 1.25h-2a1.251 1.251 0 0 1-1.25-1.25v-17.75Zm-22.253 0a1.251 1.251 0 0 1 1.25-1.25h2a1.25 1.25 0 0 1 1.25 1.25v17.75a1.251 1.251 0 0 1-1.25 1.25h-2a1.252 1.252 0 0 1-1.25-1.25v-17.75ZM3.5 24.189a2.252 2.252 0 0 1 2.25-2.25h7.995v7.125a4.756 4.756 0 0 0 4.75 4.75h2a4.756 4.756 0 0 0 4.75-4.75v-7.125H36v7.125a4.755 4.755 0 0 0 4.75 4.75h2a4.756 4.756 0 0 0 4.75-4.75v-7.125h10.75v7.125a4.756 4.756 0 0 0 4.75 4.75h2a4.756 4.756 0 0 0 4.75-4.75v-7.125H80.5v7.125a4.756 4.756 0 0 0 4.75 4.75h2a4.756 4.756 0 0 0 4.75-4.75v-7.125h10.753v7.125a4.756 4.756 0 0 0 4.75 4.75h2a4.756 4.756 0 0 0 4.75-4.75v-7.125h8a2.253 2.253 0 0 1 2.25 2.25v19.5H3.5Zm121 91.5a2.253 2.253 0 0 1-2.25 2.25H5.75a2.252 2.252 0 0 1-2.25-2.25V47.19h121Z"/>
</svg>