<svg xmlns="http://www.w3.org/2000/svg"  viewBox="0 0 128 128"><path d="M109.253 18.531l-12.189-3.656a1.747 1.747 0 00-2.06.876L91.7 22.193a1.749 1.749 0 00-.055 1.481l2.448 5.8-.209 6.638-4.208-4.465a11.335 11.335 0 00-8.22-3.547H70.741v-2.768a11.859 11.859 0 004.406-11.445h3.044a1.75 1.75 0 000-3.5h-3.613l-3.3-9.23A1.75 1.75 0 0069.628 0H57.791a1.75 1.75 0 00-1.647 1.16l-3.3 9.23h-3.616a1.75 1.75 0 000 3.5h2.345a11.833 11.833 0 00-.183 2.026 11.981 11.981 0 005.288 9.93V28.1H44.489a11.309 11.309 0 00-9.189 4.736L24.207 48.389a9.58 9.58 0 001.272 12.544l9.428 8.767.725 4.421a1.749 1.749 0 00.817 1.212l5.529 3.367-13.988 37.383-6.6 3.081a1.748 1.748 0 00-.811.776l-2.875 5.5A1.75 1.75 0 0019.25 128h22.343a1.748 1.748 0 001.745-1.876l-.614-8.5 12.029-32.155h16l4.965 13.325-6.226 18c0 .01 0 .021-.007.031a1.768 1.768 0 00-.081.366l-.893 8.881A1.749 1.749 0 0070.25 128H94.5a1.749 1.749 0 001.477-2.687l-3.25-5.122a1.733 1.733 0 00-.781-.668l-7.185-3.114 5.965-17.244a1.757 1.757 0 00-.015-1.184L80.621 70.9V42.317l10.325 10.957A9.553 9.553 0 00107.449 47l.538-17.089 2.334-4.749a1.762 1.762 0 00.179-.771v-4.184a1.751 1.751 0 00-1.247-1.676zm-11.8.115L107 21.509v2.469l-1.823 3.71-8.151-.256-1.843-4.367zM59.024 3.5H68.4l2.466 6.89h-14.3zM54.89 15.913a8.381 8.381 0 01.249-2.026h16.442a8.444 8.444 0 01-3.556 9.091 1.754 1.754 0 00-.784 1.46v6.506a3.532 3.532 0 11-7.063 0v-6.081a1.754 1.754 0 00-.9-1.532 8.479 8.479 0 01-4.388-7.418zM44.9 59.977l-.148-.113-7-6.512L44.9 43.323zm-5.944 12.784L38.4 69.39l5.423-5.83 1.071.814V70.9l-1.67 4.465zM22.14 124.5l1.261-2.411 6.366-2.97h9.556l.389 5.381zm69.177 0H72.185l.541-5.381h9.488l7.846 3.4zm-9.987-8.881H73.6l5.628-16.272a1.751 1.751 0 00-.014-1.184l-5.608-15.056a1.75 1.75 0 00-1.64-1.138H53.54a1.752 1.752 0 00-1.64 1.136l-12.163 32.511H31.9l15.961-42.653h29.794l9.557 25.649zM103.951 46.9a6.054 6.054 0 01-10.458 3.97L82.355 39.056a1.748 1.748 0 00-1.273-.55h-2.211a1.749 1.749 0 00-1.75 1.75v29.207H48.4V40.256a1.749 1.749 0 00-1.75-1.75h-1.715a1.748 1.748 0 00-1.424.734l-9.506 13.331a1.749 1.749 0 00.233 2.3L41.15 61.3l-4.7 5.056-8.587-7.986a6.069 6.069 0 01-.806-7.949l11.09-15.554a7.806 7.806 0 016.342-3.267h12.219a7.032 7.032 0 0014 0h10.748a7.817 7.817 0 015.669 2.447l7.1 7.532a1.75 1.75 0 003.023-1.145l.3-9.485 6.9.217z"/></svg>