<?xml version="1.0"?>
<svg xmlns="http://www.w3.org/2000/svg" x="0px" y="0px" viewBox="0 0 128 128"><g><path d="M71.394,113.223a9.187,9.187,0,0,1-5.711-5.646,1.751,1.751,0,0,0-3.369.009,9.189,9.189,0,0,1-5.708,5.637,1.75,1.75,0,0,0,0,3.305,9.185,9.185,0,0,1,5.708,5.637,1.75,1.75,0,0,0,3.371,0,9.189,9.189,0,0,1,5.709-5.637,1.75,1.75,0,0,0,0-3.305ZM64,117.9a12.693,12.693,0,0,0-3.018-3.024A12.7,12.7,0,0,0,64,111.851a12.715,12.715,0,0,0,3.018,3.025A12.712,12.712,0,0,0,64,117.9Z"/><path d="M122.269,62.348a9.19,9.19,0,0,1-5.71-5.646,1.75,1.75,0,0,0-3.369.009,9.182,9.182,0,0,1-5.709,5.637,1.75,1.75,0,0,0,0,3.3,9.192,9.192,0,0,1,5.709,5.637,1.75,1.75,0,0,0,3.371,0,9.189,9.189,0,0,1,5.708-5.637,1.749,1.749,0,0,0,0-3.3Zm-7.393,4.676A12.73,12.73,0,0,0,111.858,64a12.73,12.73,0,0,0,3.018-3.024A12.73,12.73,0,0,0,117.894,64,12.73,12.73,0,0,0,114.876,67.024Z"/><path d="M20.519,62.348A9.191,9.191,0,0,1,14.807,56.7a1.75,1.75,0,0,0-3.368.009A9.189,9.189,0,0,1,5.73,62.348a1.749,1.749,0,0,0,0,3.3,9.192,9.192,0,0,1,5.709,5.637,1.75,1.75,0,0,0,3.371,0,9.189,9.189,0,0,1,5.709-5.637,1.75,1.75,0,0,0,0-3.3Zm-7.395,4.676A12.725,12.725,0,0,0,10.107,64a12.725,12.725,0,0,0,3.017-3.024A12.731,12.731,0,0,0,16.142,64,12.731,12.731,0,0,0,13.124,67.024Z"/><path d="M108.058,21.692a1.746,1.746,0,0,0,1.237-.512l2.255-2.255a1.75,1.75,0,0,0-2.475-2.475L106.82,18.7a1.75,1.75,0,0,0,1.238,2.987Z"/><path d="M102.14,23.386l-7.55,7.549a1.75,1.75,0,1,0,2.474,2.475l7.55-7.55a1.749,1.749,0,1,0-2.474-2.474Z"/><path d="M18.7,106.82l-2.255,2.255a1.75,1.75,0,1,0,2.475,2.475L21.18,109.3A1.75,1.75,0,0,0,18.7,106.82Z"/><path d="M30.935,94.59l-7.549,7.55a1.749,1.749,0,1,0,2.474,2.474l7.55-7.549a1.75,1.75,0,1,0-2.475-2.475Z"/><path d="M109.3,106.82a1.75,1.75,0,0,0-2.475,2.475l2.255,2.255a1.75,1.75,0,0,0,2.475-2.475Z"/><path d="M97.064,94.59a1.75,1.75,0,0,0-2.474,2.475l7.55,7.549a1.749,1.749,0,1,0,2.474-2.474Z"/><path d="M18.925,16.45a1.75,1.75,0,0,0-2.475,2.475L18.7,21.18A1.75,1.75,0,0,0,21.18,18.7Z"/><path d="M30.935,33.41a1.75,1.75,0,1,0,2.475-2.475l-7.55-7.549a1.749,1.749,0,1,0-2.474,2.474Z"/><path d="M98.068,80.531a37.812,37.812,0,0,0,0-33.062,1.708,1.708,0,0,0-.192-.373A37.922,37.922,0,0,0,65.75,26.171V17.993h2.929a7.656,7.656,0,0,0,7.646-7.647V6.307a1.749,1.749,0,0,0-1.75-1.75H53.425a1.75,1.75,0,0,0-1.75,1.75v4.039a7.655,7.655,0,0,0,7.647,7.647H62.25v8.178A37.922,37.922,0,0,0,30.123,47.1a1.739,1.739,0,0,0-.19.372,37.808,37.808,0,0,0,0,33.064,1.739,1.739,0,0,0,.19.372,37.849,37.849,0,0,0,67.753,0A1.708,1.708,0,0,0,98.068,80.531ZM55.175,10.346V8.057h17.65v2.289a4.151,4.151,0,0,1-4.146,4.147H59.322A4.151,4.151,0,0,1,55.175,10.346Zm-25.5,55.4h8.456a52.816,52.816,0,0,0,1.856,12.414h-7.29A34.116,34.116,0,0,1,29.671,65.75Zm3.022-15.914h7.29A52.816,52.816,0,0,0,38.127,62.25H29.671A34.116,34.116,0,0,1,32.693,49.836ZM98.329,62.25H89.873a52.816,52.816,0,0,0-1.856-12.414h7.29A34.116,34.116,0,0,1,98.329,62.25Zm-11.955,0H76.246a118.712,118.712,0,0,0-.81-12.414h8.969A49.534,49.534,0,0,1,86.374,62.25Zm-31.118,0A109.988,109.988,0,0,1,56.1,49.836H71.9a112.568,112.568,0,0,1,.831,12.414Zm17.488,3.5A110.222,110.222,0,0,1,71.9,78.164H56.1a112.341,112.341,0,0,1-.831-12.414Zm2.2-19.414c-.983-6.22-2.516-11.634-4.582-15.287,5.419,2.469,9.987,8,12.844,15.287Zm-5.2-7.39a65.479,65.479,0,0,1,1.636,7.39H56.623C58.408,35.805,61.576,29.627,64,29.627,65.4,29.627,67.749,32.067,69.75,38.946Zm-12.116-7.9c-2.066,3.654-3.6,9.068-4.583,15.287H44.79C47.647,39.05,52.214,33.518,57.634,31.049Zm-5.07,18.787a118.441,118.441,0,0,0-.81,12.414H41.626A49.534,49.534,0,0,1,43.6,49.836ZM41.626,65.75H51.754a118.441,118.441,0,0,0,.81,12.414H43.6A49.534,49.534,0,0,1,41.626,65.75ZM53.051,81.664c.984,6.219,2.517,11.633,4.583,15.287-5.42-2.469-9.987-8-12.844-15.287Zm5.2,7.39a65.479,65.479,0,0,1-1.636-7.39H71.378C69.592,92.2,66.425,98.373,64,98.373,62.6,98.373,60.251,95.933,58.25,89.054Zm12.116,7.9c2.066-3.653,3.6-9.067,4.582-15.287H83.21C80.353,88.951,75.785,94.482,70.366,96.951Zm5.07-18.787a118.712,118.712,0,0,0,.81-12.414H86.374a49.534,49.534,0,0,1-1.969,12.414ZM89.873,65.75h8.456a34.116,34.116,0,0,1-3.022,12.414h-7.29A52.816,52.816,0,0,0,89.873,65.75Zm3.6-19.414H86.9A37.309,37.309,0,0,0,78.863,33.01,34.6,34.6,0,0,1,93.474,46.336ZM49.137,33.01A37.3,37.3,0,0,0,41.1,46.336h-6.57A34.6,34.6,0,0,1,49.137,33.01ZM34.526,81.664H41.1A37.3,37.3,0,0,0,49.137,94.99,34.6,34.6,0,0,1,34.526,81.664ZM78.863,94.99A37.309,37.309,0,0,0,86.9,81.664h6.57A34.6,34.6,0,0,1,78.863,94.99Z"/></g></svg>
