<svg x="0px" y="0px" viewBox="0 0 48 9" fill="none" xmlns="http://www.w3.org/2000/svg">
<path d="M47.3536 4.85355C47.5488 4.65829 47.5488 4.34171 47.3536 4.14645L44.1716 0.964466C43.9763 0.769204 43.6597 0.769204 43.4645 0.964466C43.2692 1.15973 43.2692 1.47631 43.4645 1.67157L46.2929 4.5L43.4645 7.32843C43.2692 7.52369 43.2692 7.84027 43.4645 8.03553C43.6597 8.2308 43.9763 8.2308 44.1716 8.03553L47.3536 4.85355ZM0 5H0.979167V4H0V5ZM2.9375 5H4.89583V4H2.9375V5ZM6.85417 5H8.8125V4H6.85417V5ZM10.7708 5H12.7292V4H10.7708V5ZM14.6875 5H16.6458V4H14.6875V5ZM18.6042 5H20.5625V4H18.6042V5ZM22.5208 5H24.4792V4H22.5208V5ZM26.4375 5H28.3958V4H26.4375V5ZM30.3542 5H32.3125V4H30.3542V5ZM34.2708 5H36.2292V4H34.2708V5ZM38.1875 5H40.1458V4H38.1875V5ZM42.1042 5H44.0625V4H42.1042V5ZM46.0208 5H47V4H46.0208V5Z" fill="black"/>
</svg>
