<svg viewBox="0 0 128 128"  xmlns="http://www.w3.org/2000/svg"><path d="M108.908 104.82a75.817 75.817 0 00-1.481-6.945l-.087-.33c-6.352-23.61-23.142-43.64-27.066-48.092a105.71 105.71 0 005.278-13.563l14.569-7.5a1.751 1.751 0 00.873-2.067c-1.571-5.14-10.8-15.334-11.842-16.48a2.017 2.017 0 00-.835-.513L78.227 6.6c-.018 0-.037 0-.055-.006a1.766 1.766 0 00-1.041.066c-9.35 3.691-17.322 3.208-26.31-.011a1.8 1.8 0 00-1.048-.049l-10.09 2.73a2.01 2.01 0 00-.835.513c-1.046 1.146-10.271 11.34-11.842 16.48a1.75 1.75 0 00.873 2.067l14.569 7.5a105.71 105.71 0 005.278 13.563C43.8 53.905 27.012 73.934 20.663 97.535l-.1.363a75.998 75.998 0 00-1.474 6.922 1.75 1.75 0 00.416 1.438c.549.621 13.786 15.212 44.492 15.212s43.943-14.591 44.492-15.212a1.75 1.75 0 00.419-1.438zm-19.654 1.432c-1.105-6.8-5.042-29.241-10.7-41.342a1.75 1.75 0 10-3.171 1.483c5.6 11.982 9.617 35.477 10.525 41.113a66.814 66.814 0 01-20.129 3.409V61.47a1.75 1.75 0 00-3.5 0v49.446a66.825 66.825 0 01-20.189-3.41c.91-5.636 4.923-29.131 10.526-41.113a1.75 1.75 0 00-3.171-1.483c-5.657 12.1-9.594 34.541-10.7 41.342a51.089 51.089 0 01-14.412-8.824c6.447-22.7 23.152-42.4 26.264-45.933H77.4c3.111 3.526 19.807 23.2 26.264 45.933a51.089 51.089 0 01-14.41 8.824zm-47.367-93.9l7.232-1.952c2.133 5.625 10.626 24.22 31.241 29.763a100.24 100.24 0 01-3.274 7.832H50.914c-1.883-3.974-8.871-19.772-9.027-35.64zm37-1.955l7.227 1.955c-.088 8.872-2.31 17.719-4.582 24.493A38.737 38.737 0 0165.649 28.3c7.402-3.84 11.769-13.952 13.237-17.9zm8 20.868A81.75 81.75 0 0089.5 15.549c2.738 3.239 6.144 7.568 7.595 10.461zM74.841 11.084c-1.913 4.535-5.971 12.357-11.909 14.607a52.369 52.369 0 01-9.71-14.59 35.983 35.983 0 0021.619-.017zM30.909 26.01c1.45-2.892 4.857-7.221 7.595-10.461a81.737 81.737 0 002.613 15.719zM64 117.97c-25.63 0-38.553-10.839-41.3-13.463.192-1.084.424-2.192.676-3.306 6.905 5.662 20 13.259 40.629 13.259s33.723-7.6 40.629-13.259c.253 1.118.485 2.227.677 3.311-2.743 2.631-15.579 13.458-41.311 13.458z"/></svg>