<?xml version="1.0" encoding="UTF-8"?>
<svg xmlns="http://www.w3.org/2000/svg" x="0px" y="0px" viewBox="0 0 128 128"><g><path d="M109.167,6.51h-1.652v-1.3A5.214,5.214,0,0,0,102.307,0H92.959A13,13,0,0,0,79.971,12.985v6.066A26.115,26.115,0,0,0,93.188,41.733a12.293,12.293,0,0,1-6.06,22.988H82.114A20.712,20.712,0,0,0,63.255,35.442H48.116A39.723,39.723,0,0,0,8.438,75.119a1.751,1.751,0,0,0,1.75,1.75H44l-7.744,11.4a7.75,7.75,0,0,0,6.413,12.1H55.252v25.87A1.75,1.75,0,0,0,57,128H74.371a1.75,1.75,0,0,0,1.75-1.75v-6a1.749,1.749,0,0,0-1.75-1.75H64.752v-18.12H87.171l7.29,8.835a1.75,1.75,0,0,0,2.463.236l4.629-3.818a1.749,1.749,0,0,0,.236-2.464L92.174,91.511a1.748,1.748,0,0,0-1.35-.636H64.752V76.869l22.376,0a24.438,24.438,0,0,0,12.049-45.7h0a13.949,13.949,0,0,1-7.061-12.116v-.422h13.32a17.475,17.475,0,0,1,9.5,2.8l1.93,1.247a1.762,1.762,0,0,0,2.7-1.47V16.9A10.406,10.406,0,0,0,109.167,6.51Zm-63.2,84.365L55.252,77.2V90.875ZM63,122h9.619v2.5H58.752v-24.12h2.5v19.87A1.75,1.75,0,0,0,63,122Zm34.974-17.953-1.929,1.591-6.7-8.122A1.748,1.748,0,0,0,88,96.875H42.664a4.25,4.25,0,0,1-3.518-6.637l9.08-13.369h3.021L41.216,91.642a1.749,1.749,0,0,0,1.447,2.733H90ZM58.752,90.875V76.869h2.5V90.875ZM90.365,15.129a1.75,1.75,0,0,0-1.75,1.75v2.172A17.456,17.456,0,0,0,97.45,34.212,20.938,20.938,0,0,1,87.128,73.366l-59.878,0A21.939,21.939,0,0,1,49.088,53.205H64.533a1.75,1.75,0,0,0,0-3.5H49.088A25.442,25.442,0,0,0,23.741,73.369H11.98A36.223,36.223,0,0,1,48.116,38.942H63.255a17.207,17.207,0,0,1,14.44,26.576,1.75,1.75,0,0,0,1.468,2.7h7.965a15.793,15.793,0,0,0,7.787-29.532A22.609,22.609,0,0,1,83.471,19.051V12.985A9.5,9.5,0,0,1,92.959,3.5h9.348a1.71,1.71,0,0,1,1.708,1.708v5.623a4.307,4.307,0,0,1-4.3,4.3Zm25.7,2.886a20.938,20.938,0,0,0-9.851-2.872,8.409,8.409,0,0,0,1.305-5.133h1.652a6.9,6.9,0,0,1,6.894,6.894Z"/><path d="M57.084,58.458h-16.1a1.75,1.75,0,0,0,0,3.5h16.1a1.75,1.75,0,0,0,0-3.5Z"/><path d="M50.926,65.805h-16.1a1.75,1.75,0,0,0,0,3.5h16.1a1.75,1.75,0,0,0,0-3.5Z"/></g></svg>
