<svg viewBox="0 0 128 128" xmlns="http://www.w3.org/2000/svg">
  <path d="M121.5 16.442H95.879a10.373 10.373 0 0 0-1.557-7.521 9.362 9.362 0 0 0-7.9-4.171c-5.258 0-9.218 3.317-11.38 5.69H64.32c-2.162-2.373-6.12-5.69-11.38-5.69a9.364 9.364 0 0 0-7.9 4.165 10.383 10.383 0 0 0-1.564 7.527H17.859a1.751 1.751 0 0 0-1.75 1.75v12a1.75 1.75 0 0 0 1.75 1.75h1.251V50.52H6.5a1.75 1.75 0 0 0-1.75 1.75v12a1.75 1.75 0 0 0 1.75 1.75h1.25v52.48a4.756 4.756 0 0 0 4.75 4.75h67.615a4.756 4.756 0 0 0 4.75-4.75v-12.94H115.5a4.756 4.756 0 0 0 4.75-4.75V31.942h1.25a1.749 1.749 0 0 0 1.75-1.75v-12a1.75 1.75 0 0 0-1.75-1.75zm-1.75 12H80.43v-8.5h39.32zM84.37 62.52H65.389a4.708 4.708 0 0 0 3.72-4.462 52.403 52.403 0 0 0-.008-4.038H84.37zm-57.3-9.376a43.992 43.992 0 0 1 .7-5.069 1.208 1.208 0 0 1 .667-.887 1.228 1.228 0 0 1 1.115 0l2.5 1.256a8.559 8.559 0 0 0 2.261 8.18l.3.3-5.944 2.13A1.244 1.244 0 0 1 27 57.942a47.152 47.152 0 0 1 .066-4.798zm2.784 9.213 4.5-1.614c-.481.6-.939 1.192-1.372 1.777H29.24a4.781 4.781 0 0 0 .61-.163zM35.3 65.27l.023-.032a48.809 48.809 0 0 1 3.381-4.2l1.767 1.762c-.068.076-.132.154-.2.231-.012.012-.022.026-.034.039a51.907 51.907 0 0 0-5.231 7.172l-.188-.3a1.748 1.748 0 0 0-1.478-.814h-.591A61.135 61.135 0 0 1 35.3 65.27zm1.474-11.116a5.118 5.118 0 0 1 7.239-7.238l1.053 1.053a1.749 1.749 0 0 0 2.475 0l1.059-1.053a5.119 5.119 0 0 1 7.239 7.239l-9.53 9.529zm23.79-5.7 2.5-1.259a1.247 1.247 0 0 1 1.793.887 45.888 45.888 0 0 1 .686 5.071 44.342 44.342 0 0 1 .066 4.788 1.229 1.229 0 0 1-.542.986 1.243 1.243 0 0 1-1.13.138l-5.933-2.127.306-.307a8.613 8.613 0 0 0 2.258-8.179zm-8.035 14.787a1.754 1.754 0 0 0-.2-.235c-.061-.069-.119-.14-.181-.208l1.762-1.763a54.382 54.382 0 0 1 5.964 8.1h-.6a1.751 1.751 0 0 0-1.482.818l-.182.289a52.81 52.81 0 0 0-5.081-7.001zm5.74-2.493 4.489 1.609a4.794 4.794 0 0 0 .614.163h-3.735a55.584 55.584 0 0 0-1.368-1.772zM73.93 50.52h-5.141q-.189-1.461-.489-3.083a4.718 4.718 0 0 0-2.562-3.387c-.1-.05-.2-.089-.308-.131V31.942h8.5zm-11.5-22.078v-8.5h14.5v8.5zm13.2-14.5h.057a1.252 1.252 0 0 1 1.243 1.248v1.252h-14.5V15.19a1.251 1.251 0 0 1 1.247-1.25h.04zm15.787-3.068a6.95 6.95 0 0 1 .889 5.57H80.43V15.19a4.72 4.72 0 0 0-1.64-3.561 11.559 11.559 0 0 1 7.63-3.379 5.835 5.835 0 0 1 4.996 2.622zm-43.475 0a5.844 5.844 0 0 1 5-2.618 11.563 11.563 0 0 1 7.63 3.378 4.721 4.721 0 0 0-1.64 3.562v1.252H47.047a6.965 6.965 0 0 1 .894-5.58zm-28.333 9.068H58.93v8.5H19.609zm3 12H61.93v11.936a4.924 4.924 0 0 0-.437.189L59.052 45.3a8.74 8.74 0 0 0-.74-.856 8.619 8.619 0 0 0-12-.179 8.619 8.619 0 0 0-12 .179 8.421 8.421 0 0 0-.74.856l-2.445-1.229a4.74 4.74 0 0 0-6.8 3.362c-.158.822-.345 1.9-.5 3.09H22.61zM8.25 54.02h15.263a53.64 53.64 0 0 0-.012 4.041 4.689 4.689 0 0 0 2.082 3.762 4.743 4.743 0 0 0 1.64.7H8.25zm3 64.48V66.02h19.323c-1.459 2.279-2.318 3.931-2.389 4.071a1.746 1.746 0 0 0 .064 1.713 1.855 1.855 0 0 0 1.5.836l2.633-.007 1.219 1.933a1.767 1.767 0 0 0 1.472.853h.123a1.683 1.683 0 0 0 1.451-1.009c.014-.028.719-1.373 1.912-3.241v48.581H12.5a1.252 1.252 0 0 1-1.25-1.25zm30.81 1.25V66.323c.083-.1.165-.2.25-.3h1.384L45.07 67.4a1.749 1.749 0 0 0 2.475 0l1.376-1.376h1.39l.249.3v53.426zm38.055 0H54.06V71.167a51.938 51.938 0 0 1 1.961 3.333 1.752 1.752 0 0 0 1.483.879h.036a1.75 1.75 0 0 0 1.481-.818l1.213-1.929 2.641.007h.005a1.75 1.75 0 0 0 1.557-2.549c-.072-.14-.93-1.791-2.391-4.071h19.319V118.5a1.251 1.251 0 0 1-1.25 1.25zm36.635-18.94a1.251 1.251 0 0 1-1.25 1.25H84.865V66.02h1.255a1.75 1.75 0 0 0 1.75-1.75v-12a1.75 1.75 0 0 0-1.75-1.75h-8.69V31.942h39.32z"/>
  <path d="M77.115 88.631a1.75 1.75 0 0 0-1.75 1.75v6a1.75 1.75 0 0 0 3.5 0v-6a1.75 1.75 0 0 0-1.75-1.75z"/>
</svg>