<svg xmlns="http://www.w3.org/2000/svg"  version="1.1" viewBox="-23 0 638 638.75006" x="0px" y="0px">
<g id="surface1">
<path d="M 593.609375 609.859375 L 514.875 174.5625 C 503.984375 115.890625 465.996094 78.039062 417.460938 78.039062 L 405.464844 78.039062 L 405.464844 27.578125 C 405.464844 12.347656 393.117188 0 377.886719 0 L 216.425781 0 C 201.199219 0 188.847656 12.347656 188.847656 27.578125 L 188.847656 78.039062 L 176.851562 78.039062 C 128.589844 78.039062 90.054688 115.824219 79.4375 174.5625 L 0.707031 609.859375 C -0.449219 616.488281 1.449219 623.277344 5.878906 628.339844 C 11.484375 634.890625 19.660156 638.6875 28.28125 638.75 L 566.03125 638.75 C 574.628906 638.667969 582.777344 634.875 588.371094 628.339844 C 592.816406 623.289062 594.746094 616.492188 593.609375 609.859375 Z M 202.636719 27.578125 C 202.636719 19.960938 208.804688 13.785156 216.425781 13.785156 L 249.863281 13.785156 L 249.863281 78.039062 L 202.636719 78.039062 Z M 290.261719 624.964844 L 131.28125 624.964844 L 155.339844 315.753906 C 155.648438 311.949219 152.804688 308.613281 149 308.308594 C 145.195312 308.003906 141.855469 310.847656 141.554688 314.652344 L 117.351562 624.890625 L 28.28125 624.890625 C 23.753906 624.847656 19.464844 622.859375 16.492188 619.445312 C 14.796875 617.570312 13.992188 615.0625 14.289062 612.550781 L 93.019531 176.835938 C 100.121094 137.679688 126.320312 91.832031 176.851562 91.832031 L 290.261719 91.832031 Z M 290.261719 78.039062 L 263.722656 78.039062 L 263.722656 13.71875 L 290.261719 13.71875 Z M 344.378906 13.71875 L 377.820312 13.71875 C 385.4375 13.71875 391.605469 19.886719 391.605469 27.507812 L 391.605469 78.039062 L 344.378906 78.039062 Z M 304.046875 13.71875 L 330.59375 13.71875 L 330.59375 78.039062 L 304.046875 78.039062 Z M 578.097656 619.445312 C 575.125 622.859375 570.835938 624.847656 566.308594 624.890625 L 476.683594 624.890625 L 452.484375 314.652344 C 452.179688 310.847656 448.84375 308.003906 445.039062 308.308594 C 441.230469 308.613281 438.390625 311.949219 438.695312 315.753906 L 462.757812 624.964844 L 304.046875 624.964844 L 304.046875 91.832031 L 417.460938 91.832031 C 467.996094 91.832031 494.195312 137.605469 501.292969 176.835938 L 580.230469 612.347656 C 580.625 614.9375 579.847656 617.566406 578.097656 619.515625 C 578.097656 619.515625 578.097656 619.445312 578.097656 619.445312 Z M 578.097656 619.445312 " style=" stroke:none;fill-rule:nonzero;fill:rgb(0%,0%,0%);fill-opacity:1;" />
<path d="M 148.722656 503.691406 C 148.722656 513.9375 157.027344 522.238281 167.269531 522.238281 L 224.839844 522.238281 C 235.082031 522.25 243.390625 513.949219 243.402344 503.710938 C 243.414062 493.46875 235.117188 485.160156 224.878906 485.144531 C 224.863281 485.144531 224.847656 485.144531 224.839844 485.144531 L 167.269531 485.144531 C 157.027344 485.144531 148.722656 493.449219 148.722656 503.691406 Z M 229.59375 503.691406 C 229.558594 506.304688 227.449219 508.414062 224.839844 508.449219 L 167.269531 508.449219 C 164.644531 508.457031 162.503906 506.324219 162.503906 503.695312 C 162.5 501.070312 164.628906 498.9375 167.253906 498.9375 C 167.261719 498.9375 167.269531 498.9375 167.273438 498.9375 L 224.84375 498.9375 C 227.449219 498.96875 229.550781 501.078125 229.59375 503.691406 Z M 229.59375 503.691406 " style=" stroke:none;fill-rule:nonzero;fill:rgb(0%,0%,0%);fill-opacity:1;" />
<path d="M 369.476562 484.804688 C 359.234375 484.816406 350.9375 493.121094 350.953125 503.371094 C 350.96875 513.59375 359.253906 521.882812 369.476562 521.894531 L 427.046875 521.894531 C 437.289062 521.878906 445.582031 513.570312 445.570312 503.328125 C 445.554688 493.101562 437.269531 484.808594 427.046875 484.804688 Z M 431.523438 503.347656 C 431.523438 505.972656 429.394531 508.101562 426.765625 508.101562 L 369.476562 508.101562 C 366.851562 508.101562 364.722656 505.972656 364.722656 503.347656 C 364.753906 500.734375 366.863281 498.625 369.476562 498.589844 L 427.046875 498.589844 C 429.707031 498.65625 431.804688 500.878906 431.738281 503.546875 C 431.738281 503.59375 431.738281 503.644531 431.734375 503.691406 Z M 431.523438 503.347656 " style=" stroke:none;fill-rule:nonzero;fill:rgb(0%,0%,0%);fill-opacity:1;" />
</g>
</svg>