<svg id="Layer_1" enable-background="new 0 0 128 128" viewBox="0 0 128 128" xmlns="http://www.w3.org/2000/svg"><g><path d="m127.5 62.7c-3.3-3.2-21.5-20.6-21.5-20.6v-40.4c0-1-.8-1.7-1.8-1.7h-80.4c-1 0-1.7.8-1.8 1.7v40.4s-18.5 17.7-21.5 20.6c-.2.3-.5.7-.5 1.3v62.3c0 1 .8 1.7 1.7 1.8h124.5c1 0 1.7-.8 1.8-1.7v-62.4c0-.6-.3-1.1-.5-1.3zm-4.6.5-16.9 5.5v-21.7zm-97.4-59.7h77v66.3l-38.5 12.4-38.5-12.4zm-3.5 65.2-16.9-5.5 16.9-16.2zm102.5 55.8h-121v-58.1l60 19.3c.3.1.7.1 1.1 0l60-19.3v58.1z"/><path d="m60.4 66.9c2.2 2.3 5.5 1.9 7.3 0 5.9-6.3 23.8-25 23.8-25 5.4-5.7 5.2-14.6-.5-20-2.6-2.5-6.1-3.8-9.7-3.9-7-.1-12.6 2.2-17.2 6.9-4.2-4.4-9.6-6.9-16.9-6.9-3.8 0-7.6 1.5-10.3 4.2-5.4 5.4-5.5 14.2-.2 19.7-.1-.1 17.7 18.7 23.7 25zm-21.1-42.4c2.1-2 4.9-3.1 7.8-3.1 6.8 0 12 2.6 15.5 7.2.7.9 2.1.8 2.8 0 3.6-4.6 8.2-7.2 15.8-7.2 5.9 0 10.7 4.8 10.7 10.7 0 2.7-1 5.4-2.9 7.3l-23.8 25c-.6.6-1.6.6-2.2 0l-23.8-25c-4.1-4.2-4-10.8.1-14.9z"/><path d="m81.9 39.9c.9-.9 3.6-3.7 3.6-3.7 2.1-2.2 2.2-5.6.2-7.8-.6-.7-1.7-.8-2.5-.2-.7.6-.8 1.7-.2 2.5.8.9.7 2.3-.1 3.2l-3.6 3.7c-.7.7-.7 1.8.1 2.5.9.7 2 .2 2.5-.2z"/><path d="m47.3 108.4h-37.5c-1 0-1.7.8-1.8 1.7v8.1c0 1 .8 1.8 1.7 1.8h37.5c1 0 1.7-.8 1.8-1.7v-8.1c0-1-.8-1.8-1.7-1.8zm-1.8 8.1h-34v-4.6h34z"/></g></svg>