<?xml version="1.0" encoding="iso-8859-1"?>
<!-- Generator: Adobe Illustrator 19.0.0, SVG Export Plug-In . SVG Version: 6.00 Build 0)  -->
<svg version="1.1" id="Capa_1" xmlns="http://www.w3.org/2000/svg" xmlns:xlink="http://www.w3.org/1999/xlink" x="0px" y="0px"
	 viewBox="0 0 512 512" style="enable-background:new 0 0 512 512;" xml:space="preserve">
<g>
	<g>
		<path d="M440.523,121.529c-5.893-8.868-16.235-14.382-26.979-14.382c-10.75,0-21.092,5.513-26.985,14.388
			c-5.709,8.592-6.515,19.394-2.21,29.632c6.71,15.959,18.111,35.808,18.589,36.642l10.607,18.422l10.601-18.422
			c0.483-0.834,11.884-20.689,18.594-36.648C447.038,140.923,446.232,130.121,440.523,121.529z M420.173,141.683
			c-1.893,4.518-4.27,9.478-6.641,14.18c-2.371-4.702-4.736-9.663-6.641-14.18c-1.68-4.017-0.386-5.968,0.04-6.607
			c1.329-2.003,4.109-3.459,6.607-3.459c2.498,0,5.272,1.456,6.601,3.459C420.564,135.715,421.859,137.666,420.173,141.683z"/>
	</g>
</g>
<g>
	<g>
		<path d="M336.386,72.317L186.98,47.444l-4.489-0.748L162.51,43.37v0.006L0,74.499v398.816l174.745-33.477l150.281,28.792
			l24.47-4.075L512,437.49V38.685L336.386,72.317z M162.516,257.042l-26.018-14.854l-12.132,21.253l35.416,20.217l2.734-4.782
			v138.396L24.47,443.723V94.722l138.045-26.439V257.042z M325.026,251.079l-33.465,21.132l13.064,20.683l20.396-12.88v163.707
			l-138.04-26.444V68.283l138.045,26.439V251.079z M487.535,417.273L349.49,443.717V94.722l138.045-26.439V417.273z"/>
	</g>
</g>
<g>
	<g>
		<polygon points="271.147,285.092 242.879,302.938 213.845,286.363 201.713,307.611 243.512,331.477 284.211,305.787 		"/>
	</g>
</g>
<g>
	<g>
		
			<rect x="356.183" y="220.772" transform="matrix(0.8456 -0.5338 0.5338 0.8456 -66.2402 236.9906)" width="40.78" height="24.47"/>
	</g>
</g>
<g>
	<g>
		<path d="M82.216,189.501c-20.833,0-37.776,16.943-37.776,37.77c0,20.833,16.943,37.776,37.776,37.776
			c20.833,0,37.776-16.943,37.776-37.776C119.998,206.449,103.049,189.501,82.216,189.501z M82.216,240.582
			c-7.338,0-13.311-5.968-13.311-13.311c0-7.338,5.968-13.306,13.311-13.306c7.343,0,13.311,5.968,13.311,13.306
			C95.527,234.614,89.554,240.582,82.216,240.582z"/>
	</g>
</g>
<g>
</g>
<g>
</g>
<g>
</g>
<g>
</g>
<g>
</g>
<g>
</g>
<g>
</g>
<g>
</g>
<g>
</g>
<g>
</g>
<g>
</g>
<g>
</g>
<g>
</g>
<g>
</g>
<g>
</g>
</svg>
