<svg x="0px"  y="0px" viewBox="0 0 128 128" xmlns="http://www.w3.org/2000/svg"><path d="m94.476 117.123a48.173 48.173 0 0 0 6.909-67.856h4.8a1.751 1.751 0 0 0 1.75-1.75v-4.267a6.758 6.758 0 0 0 -6.75-6.75h-22.649l2.037-8.125h1.958a5.33 5.33 0 0 0 .7-10.616l1.569-6.259h15.2a1.751 1.751 0 0 0 1.75-1.75v-8a1.751 1.751 0 0 0 -1.745-1.75h-22.805a1.75 1.75 0 0 0 -1.7 1.324l-4.1 16.364h-1.869a5.332 5.332 0 0 0 -.793 10.612l-2.057 8.2h-39.868a6.758 6.758 0 0 0 -6.75 6.75v4.267a1.751 1.751 0 0 0 1.75 1.75h4.8a48.173 48.173 0 0 0 6.909 67.856 5.471 5.471 0 0 0 .866 10.877h59.224a5.471 5.471 0 0 0 .864-10.874zm-15.915-113.623h19.694v4.5h-14.817a1.75 1.75 0 0 0 -1.7 1.324l-2.1 8.364h-4.633zm-10.874 19.531a1.846 1.846 0 0 1 1.844-1.843h13a1.844 1.844 0 1 1 0 3.687h-13a1.846 1.846 0 0 1 -1.844-1.844zm4.639 5.344h4.639l-2.037 8.125h-4.639zm-48.763 14.875a3.254 3.254 0 0 1 3.25-3.25h74.374a3.254 3.254 0 0 1 3.25 3.25v2.517h-80.874zm-4.318 36.492a44.516 44.516 0 0 1 12-30.475h65.513a44.724 44.724 0 0 1 -8.048 67.781h-49.42a44.618 44.618 0 0 1 -20.045-37.306zm74.367 44.758h-59.224a1.975 1.975 0 1 1 0-3.949h59.224a1.975 1.975 0 1 1 0 3.949z"/></svg>