<svg x="0px" y="0px" viewBox="-1 0 512 512" xmlns="http://www.w3.org/2000/svg"><path d="m64.433594 344.328125c-19.652344-2.257813-44.835938-.484375-56.589844 11.269531-21.988281 21.988282 5.472656 69.140625 42.445312 106.109375 27.84375 27.84375 61.453126 50.292969 85.75 50.292969 7.96875 0 14.933594-2.414062 20.363282-7.84375 11.753906-11.753906 13.527344-36.941406 11.269531-56.589844-.910156-7.917968-2.992187-19.328125-7.691406-31.726562l118.953125-100.046875c9.917968 9.011719 20.136718 18.824219 30.796875 29.070312 37.207031 35.742188 79.382812 76.253907 124.367187 95.535157 24.601563 10.542968 51.261719 2.683593 66.332032-19.574219 15.0625-22.25 12.464843-49.917969-6.464844-68.847657l-29.636719-29.640624 28.328125-28.328126-21.222656-21.222656-28.328125 28.332032c-3.734375-3.839844-10.78125-10.335938-20.574219-21.871094l27.679688-27.683594-21.222657-21.222656-24.734375 24.738281c-7.117187-10.617187-13.472656-21.746094-19.039062-33.347656 25.425781-27.410157 47.378906-57.714844 65.660156-90.625l38.675781 38.675781 21.21875-21.222656-42.445312-42.445313 10.613281-10.609375c17.550781-17.554687 17.550781-46.113281 0-63.667968-17.59375-17.59375-46.074219-17.59375-63.667969 0l-10.613281 10.609374-42.445312-42.445312-21.222657 21.222656 38.675781 38.671875c-32.90625 18.28125-63.207031 40.234375-90.621093 65.664063-11.601563-5.570313-22.734375-11.921875-33.347657-19.042969l24.734376-24.734375-21.222657-21.222656-27.679687 27.683594c-11.519532-9.78125-18.039063-16.847657-21.871094-20.574219l28.328125-28.332031-21.222656-21.222657-28.328125 28.332031-29.636719-29.640624c-18.933594-18.929688-46.585937-21.542969-68.8125-6.496094-22.277344 15.085937-30.160156 41.753906-19.613281 66.363281 19.28125 44.988281 59.792968 87.160156 95.535156 124.367187 10.398438 10.820313 20.347656 21.183594 29.472656 31.242188l-99.234375 119.730469c-12.390625-4.695313-23.796875-6.773438-31.710937-7.683594zm-34.488282 32.113281c4.4375-1.988281 16.898438-4.222656 33.0625-2.046875 9.199219 1.238281 24.800782 4.671875 39.230469 14.144531l-41.03125 41.03125c-23.054687-25.933593-31.292969-46.503906-31.261719-53.128906zm105.613282 105.613282c-.011719 0-.023438 0-.035156 0-6.667969 0-27.210938-8.25-53.09375-31.265626l41.03125-41.027343c9.472656 14.429687 12.902343 30.03125 14.140624 39.230469 2.175782 16.164062-.054687 28.625-2.042968 33.0625zm340.015625-78.058594c-5.457031 8.066406-16.117188 14.613281-29.652344 8.8125-39.960937-17.125-78.3125-53.964844-115.398437-89.59375-9.773438-9.390625-19.179688-18.414063-28.429688-26.90625 37.621094-31.832032 45.527344-37.730469 60.808594-52.117188 31.171875 59.484375 67.675781 84.003906 109.839844 129.003906 10.410156 10.414063 8.289062 22.742188 2.832031 30.800782zm-73.785157-321.972656 26.957032 26.957031c-10.304688 19.429687-21.972656 37.90625-34.917969 55.398437-5.785156-9.363281-12.855469-18.28125-21.003906-26.429687-8.152344-8.152344-17.070313-15.222657-26.433594-21.007813 17.488281-12.945312 35.96875-24.609375 55.398437-34.917968zm55.925782-28.96875c5.851562 5.851562 5.851562 15.375 0 21.226562l-10.613282 10.609375-21.222656-21.222656 10.613282-10.613281c5.863281-5.863282 15.355468-5.863282 21.222656 0zm-136.683594 84.175781c10.832031 5.164062 21.273438 12.640625 30.570312 21.9375 9.296876 9.300781 16.773438 19.738281 21.933594 30.566406-27.054687 31.339844-53.132812 51.789063-56.148437 54.492187-10.433594-5.140624-20.492188-12.429687-29.453125-21.390624-8.949219-8.949219-16.226563-18.992188-21.371094-29.410157 2.332031-2.601562 21.921875-28.097656 54.46875-56.195312zm-133.480469 43.015625c-35.625-37.085938-72.464843-75.4375-89.59375-115.398438-5.800781-13.539062.769531-24.210937 8.855469-29.683594 8.039062-5.445312 20.34375-7.550781 30.761719 2.863282 44.878906 42.054687 69.539062 78.675781 129.003906 109.839844-16.582031 17.613281-24.386719 28.261718-51.863281 61.082031-8.566406-9.335938-17.679688-18.832031-27.164063-28.703125zm58.5 37.929687c5.722657 9.171875 12.679688 17.90625 20.660157 25.882813 8.050781 8.050781 16.871093 15.058594 26.132812 20.8125l-147.382812 123.964844c-3.015626-4.121094-6.421876-8.15625-10.28125-12.015626-3.875-3.875-7.929688-7.292968-12.0625-10.316406zm0 0"/></svg>