<?xml version="1.0"?>
<svg xmlns="http://www.w3.org/2000/svg" x="0px" y="0px" viewBox="0 0 128 128"><path d="M127.99,46.661a1.77,1.77,0,0,0-1.493-1.628c-.362-.051-36.116-5.35-60.747-25.115V17.583l15.8-6.051a1.749,1.749,0,0,0,0-3.267L65.75,2.214V1.75a1.75,1.75,0,0,0-3.5,0V19.918C37.619,39.683,1.865,44.982,1.5,45.033A1.783,1.783,0,0,0,0,46.766V63.8a7.379,7.379,0,0,0,7.37,7.37h.078a7.334,7.334,0,0,0,.8-.046v45.626H5.75A5.756,5.756,0,0,0,0,122.5v3.751A1.749,1.749,0,0,0,1.75,128H24.387a1.749,1.749,0,0,0,1.75-1.75V122.5a5.756,5.756,0,0,0-5.75-5.75h-2.5V71.123a7.3,7.3,0,0,0,.8.046h.08a7.352,7.352,0,0,0,5.619-2.614,7.354,7.354,0,0,0,5.62,2.614h.079A7.35,7.35,0,0,0,35.7,68.555a7.354,7.354,0,0,0,5.62,2.614H41.4a7.354,7.354,0,0,0,5.62-2.614,7.354,7.354,0,0,0,5.62,2.614h.078a7.354,7.354,0,0,0,5.62-2.614,7.354,7.354,0,0,0,5.62,2.614h.078a7.354,7.354,0,0,0,5.62-2.614,7.354,7.354,0,0,0,5.62,2.614h.078a7.354,7.354,0,0,0,5.62-2.614,7.354,7.354,0,0,0,5.62,2.614h.079a7.354,7.354,0,0,0,5.62-2.614,7.35,7.35,0,0,0,5.619,2.614h.079a7.354,7.354,0,0,0,5.62-2.614,7.352,7.352,0,0,0,5.619,2.614h.079a7.3,7.3,0,0,0,.8-.046v45.626h-2.5a5.756,5.756,0,0,0-5.75,5.75v3.751a1.749,1.749,0,0,0,1.75,1.75H126.25a1.749,1.749,0,0,0,1.75-1.75V122.5a5.756,5.756,0,0,0-5.75-5.75h-2.5V71.123a7.334,7.334,0,0,0,.8.046h.078A7.379,7.379,0,0,0,128,63.8V46.766C128,46.73,127.992,46.7,127.99,46.661ZM3.5,56.507V48.516h121v7.991ZM76.027,9.9,65.75,13.836V5.961ZM64,23.013c14.918,11.817,33.232,18.478,46.084,22H17.916C30.768,41.491,49.082,34.83,64,23.013ZM7.37,67.669A3.874,3.874,0,0,1,3.5,63.8V60.007h7.818V63.8A3.926,3.926,0,0,1,7.37,67.669ZM22.637,122.5v2H3.5v-2a2.253,2.253,0,0,1,2.25-2.25H20.387A2.253,2.253,0,0,1,22.637,122.5Zm-8.25-52.72v46.97H11.75V69.779a7.494,7.494,0,0,0,1.318-1.211A7.5,7.5,0,0,0,14.387,69.779Zm4.38-2.11a3.931,3.931,0,0,1-3.949-3.87V60.007h7.819V63.8A3.875,3.875,0,0,1,18.767,67.669Zm11.318,0h-.079a3.873,3.873,0,0,1-3.869-3.87V60.007h7.817V63.8A3.873,3.873,0,0,1,30.085,67.669Zm11.318,0h-.079a3.874,3.874,0,0,1-3.87-3.87V60.007h7.818V63.8A3.873,3.873,0,0,1,41.4,67.669Zm11.318,0h-.078a3.875,3.875,0,0,1-3.871-3.87V60.007h7.819V63.8A3.875,3.875,0,0,1,52.721,67.669Zm11.318,0h-.078a3.874,3.874,0,0,1-3.87-3.87V60.007h7.818V63.8A3.874,3.874,0,0,1,64.039,67.669Zm11.318,0h-.078a3.875,3.875,0,0,1-3.87-3.87V60.007h7.819V63.8A3.875,3.875,0,0,1,75.357,67.669Zm11.319,0H86.6a3.873,3.873,0,0,1-3.869-3.87V60.007h7.818V63.8A3.874,3.874,0,0,1,86.676,67.669Zm11.318,0h-.079a3.873,3.873,0,0,1-3.869-3.87V60.007h7.817V63.8A3.873,3.873,0,0,1,97.994,67.669Zm11.239,0a3.875,3.875,0,0,1-3.87-3.87V60.007h7.819V63.8A3.927,3.927,0,0,1,109.233,67.669ZM124.5,122.5v2H105.363v-2a2.253,2.253,0,0,1,2.25-2.25H122.25A2.253,2.253,0,0,1,124.5,122.5Zm-8.25-52.72v46.97h-2.637V69.779a7.5,7.5,0,0,0,1.319-1.211A7.494,7.494,0,0,0,116.25,69.779Zm8.25-5.98a3.874,3.874,0,0,1-3.87,3.87,3.93,3.93,0,0,1-3.948-3.87V60.007H124.5Z"/></svg>
